<svg xmlns="http://www.w3.org/2000/svg" xmlns:xlink="http://www.w3.org/1999/xlink" width="1080" zoomAndPan="magnify" viewBox="0 0 810 809.999993" height="1080" preserveAspectRatio="xMidYMid meet" version="1.0"><rect x="-81" width="972" fill="#ffffff" y="-80.999999" height="971.999992" fill-opacity="1"/><rect x="-81" width="972" fill="#ffffff" y="-80.999999" height="971.999992" fill-opacity="1"/><path fill="#e3b652" d="M 465.75 324 L 465.75 479.25 C 465.75 509.085938 441.585938 533.25 411.75 533.25 C 381.914062 533.25 357.75 509.085938 357.75 479.25 L 357.75 310.5 C 357.75 309.394531 357.804688 308.292969 357.914062 307.191406 C 358.019531 306.09375 358.183594 305 358.398438 303.914062 C 358.613281 302.832031 358.882812 301.761719 359.203125 300.703125 C 359.523438 299.644531 359.894531 298.605469 360.320312 297.585938 C 360.742188 296.5625 361.214844 295.566406 361.734375 294.589844 C 362.257812 293.617188 362.824219 292.667969 363.4375 291.75 C 364.050781 290.832031 364.710938 289.945312 365.410156 289.089844 C 366.113281 288.234375 366.855469 287.417969 367.636719 286.636719 C 368.417969 285.855469 369.234375 285.113281 370.089844 284.410156 C 370.945312 283.710938 371.832031 283.050781 372.75 282.4375 C 373.667969 281.824219 374.617188 281.257812 375.589844 280.734375 C 376.566406 280.214844 377.5625 279.742188 378.585938 279.320312 C 379.605469 278.894531 380.644531 278.523438 381.703125 278.203125 C 382.761719 277.882812 383.832031 277.613281 384.914062 277.398438 C 386 277.183594 387.09375 277.019531 388.191406 276.914062 C 389.292969 276.804688 390.394531 276.75 391.5 276.75 C 392.605469 276.75 393.707031 276.804688 394.808594 276.914062 C 395.90625 277.019531 397 277.183594 398.085938 277.398438 C 399.167969 277.613281 400.238281 277.882812 401.296875 278.203125 C 402.355469 278.523438 403.394531 278.894531 404.414062 279.320312 C 405.4375 279.742188 406.433594 280.214844 407.410156 280.734375 C 408.382812 281.257812 409.332031 281.824219 410.25 282.4375 C 411.167969 283.050781 412.054688 283.710938 412.910156 284.410156 C 413.765625 285.113281 414.582031 285.855469 415.363281 286.636719 C 416.144531 287.417969 416.886719 288.234375 417.589844 289.089844 C 418.289062 289.945312 418.949219 290.832031 419.5625 291.75 C 420.175781 292.667969 420.742188 293.617188 421.265625 294.589844 C 421.785156 295.566406 422.257812 296.5625 422.679688 297.585938 C 423.105469 298.605469 423.476562 299.644531 423.796875 300.703125 C 424.117188 301.761719 424.386719 302.832031 424.601562 303.914062 C 424.816406 305 424.980469 306.09375 425.085938 307.191406 C 425.195312 308.292969 425.25 309.394531 425.25 310.5 L 425.25 452.25 C 425.25 459.675781 419.175781 465.75 411.75 465.75 C 404.324219 465.75 398.25 459.675781 398.25 452.25 L 398.25 324 L 378 324 L 378 452.25 C 378 453.355469 378.054688 454.457031 378.164062 455.558594 C 378.269531 456.65625 378.433594 457.75 378.648438 458.835938 C 378.863281 459.917969 379.132812 460.988281 379.453125 462.046875 C 379.773438 463.105469 380.144531 464.144531 380.570312 465.164062 C 380.992188 466.1875 381.464844 467.183594 381.984375 468.160156 C 382.507812 469.132812 383.074219 470.082031 383.6875 471 C 384.300781 471.917969 384.960938 472.804688 385.660156 473.660156 C 386.363281 474.515625 387.101562 475.332031 387.886719 476.113281 C 388.667969 476.894531 389.484375 477.636719 390.339844 478.339844 C 391.195312 479.039062 392.082031 479.699219 393 480.3125 C 393.917969 480.925781 394.867188 481.492188 395.839844 482.015625 C 396.816406 482.535156 397.8125 483.007812 398.835938 483.429688 C 399.855469 483.855469 400.894531 484.226562 401.953125 484.546875 C 403.011719 484.867188 404.082031 485.136719 405.164062 485.351562 C 406.25 485.566406 407.34375 485.730469 408.441406 485.835938 C 409.542969 485.945312 410.644531 486 411.75 486 C 412.855469 486 413.957031 485.945312 415.058594 485.835938 C 416.15625 485.730469 417.25 485.566406 418.335938 485.351562 C 419.417969 485.136719 420.488281 484.867188 421.546875 484.546875 C 422.605469 484.226562 423.644531 483.855469 424.664062 483.429688 C 425.6875 483.007812 426.683594 482.535156 427.660156 482.015625 C 428.632812 481.492188 429.582031 480.925781 430.5 480.3125 C 431.417969 479.699219 432.304688 479.039062 433.160156 478.339844 C 434.015625 477.636719 434.832031 476.894531 435.613281 476.113281 C 436.394531 475.332031 437.136719 474.515625 437.839844 473.660156 C 438.539062 472.804688 439.199219 471.917969 439.8125 471 C 440.425781 470.082031 440.992188 469.132812 441.515625 468.160156 C 442.035156 467.183594 442.507812 466.1875 442.929688 465.164062 C 443.355469 464.144531 443.726562 463.105469 444.046875 462.046875 C 444.367188 460.988281 444.636719 459.917969 444.851562 458.835938 C 445.066406 457.75 445.230469 456.65625 445.335938 455.558594 C 445.445312 454.457031 445.5 453.355469 445.5 452.25 L 445.5 310.5 C 445.5 280.664062 421.335938 256.5 391.5 256.5 C 361.664062 256.5 337.5 280.664062 337.5 310.5 L 337.5 479.25 C 337.5 520.289062 370.710938 553.5 411.75 553.5 C 452.789062 553.5 486 520.289062 486 479.25 L 486 324 Z M 465.75 324 " fill-opacity="1" fill-rule="nonzero"/></svg>