<svg xmlns="http://www.w3.org/2000/svg" xmlns:xlink="http://www.w3.org/1999/xlink" width="500" zoomAndPan="magnify" viewBox="0 0 375 374.999991" height="500" preserveAspectRatio="xMidYMid meet" version="1.0"><rect x="-37.5" width="450" fill="#ffffff" y="-37.499999" height="449.999989" fill-opacity="1"/><rect x="-37.5" width="450" fill="#ffffff" y="-37.499999" height="449.999989" fill-opacity="1"/><path fill="#e3b652" d="M 125 50 L 75 81.25 L 25 50 L 25 37.5 L 75 68.75 L 125 37.5 M 125 25 L 25 25 C 18.0625 25 12.5 30.5625 12.5 37.5 L 12.5 112.5 C 12.5 113.320312 12.578125 114.132812 12.738281 114.9375 C 12.898438 115.742188 13.136719 116.523438 13.453125 117.285156 C 13.765625 118.042969 14.152344 118.761719 14.605469 119.445312 C 15.0625 120.128906 15.582031 120.757812 16.160156 121.339844 C 16.742188 121.917969 17.371094 122.4375 18.054688 122.894531 C 18.738281 123.347656 19.457031 123.734375 20.214844 124.046875 C 20.976562 124.363281 21.757812 124.601562 22.5625 124.761719 C 23.367188 124.917969 24.179688 125 25 125 L 125 125 C 125.820312 125 126.632812 124.917969 127.4375 124.761719 C 128.242188 124.601562 129.023438 124.363281 129.785156 124.046875 C 130.542969 123.734375 131.261719 123.347656 131.945312 122.894531 C 132.628906 122.4375 133.257812 121.917969 133.839844 121.339844 C 134.417969 120.757812 134.9375 120.128906 135.394531 119.445312 C 135.847656 118.761719 136.234375 118.042969 136.546875 117.285156 C 136.863281 116.523438 137.101562 115.742188 137.261719 114.9375 C 137.417969 114.132812 137.5 113.320312 137.5 112.5 L 137.5 37.5 C 137.5 36.679688 137.417969 35.867188 137.261719 35.0625 C 137.101562 34.257812 136.863281 33.476562 136.546875 32.714844 C 136.234375 31.957031 135.847656 31.238281 135.394531 30.554688 C 134.9375 29.871094 134.417969 29.242188 133.839844 28.660156 C 133.257812 28.082031 132.628906 27.5625 131.945312 27.105469 C 131.261719 26.652344 130.542969 26.265625 129.785156 25.953125 C 129.023438 25.636719 128.242188 25.398438 127.4375 25.238281 C 126.632812 25.078125 125.820312 25 125 25 " fill-opacity="1" fill-rule="nonzero"/></svg>